<svg width="42" height="42" viewBox="0 0 42 42" fill="none" xmlns="http://www.w3.org/2000/svg">
<rect width="42" height="42" rx="12" fill="#E4FADA"/>
<path d="M22.0834 19.9167C22.0834 17.5235 20.1433 15.5834 17.7501 15.5834C15.3568 15.5834 13.4167 17.5235 13.4167 19.9167C13.4167 22.3099 15.3568 24.25 17.7501 24.25C20.1433 24.25 22.0834 22.3099 22.0834 19.9167Z" stroke="#409F14" stroke-width="1.625" stroke-linecap="round" stroke-linejoin="round"/>
<path d="M19.9586 16.1875C19.9309 15.9901 19.9167 15.7884 19.9167 15.5833C19.9167 13.1901 21.8569 11.25 24.2501 11.25C26.6433 11.25 28.5834 13.1901 28.5834 15.5833C28.5834 17.9766 26.6433 19.9167 24.2501 19.9167C23.4434 19.9167 22.6883 19.6963 22.0416 19.3125" stroke="#409F14" stroke-width="1.625" stroke-linecap="round" stroke-linejoin="round"/>
<path d="M24.25 30.75C24.25 27.1602 21.3398 24.25 17.75 24.25C14.1601 24.25 11.25 27.1602 11.25 30.75" stroke="#409F14" stroke-width="1.625" stroke-linecap="round" stroke-linejoin="round"/>
<path d="M30.75 26.4166C30.75 22.8268 27.8398 19.9166 24.25 19.9166" stroke="#409F14" stroke-width="1.625" stroke-linecap="round" stroke-linejoin="round"/>
</svg>
