<svg width="42" height="42" viewBox="0 0 42 42" fill="none" xmlns="http://www.w3.org/2000/svg">
<rect width="42" height="42" rx="12" fill="#E4FADA"/>
<path d="M21.0001 31.8333C26.9832 31.8333 31.8334 26.983 31.8334 21C31.8334 15.0169 26.9832 10.1666 21.0001 10.1666C15.017 10.1666 10.1667 15.0169 10.1667 21C10.1667 26.983 15.017 31.8333 21.0001 31.8333Z" stroke="#409F14" stroke-width="1.625" stroke-linecap="round" stroke-linejoin="round"/>
<path d="M18.2917 18.2917C18.2917 16.7959 19.5043 15.5834 21.0001 15.5834C22.4958 15.5834 23.7084 16.7959 23.7084 18.2917C23.7084 19.22 23.2414 20.0392 22.5294 20.5273C21.7891 21.0346 21.0001 21.7276 21.0001 22.625" stroke="#409F14" stroke-width="1.625" stroke-linecap="round" stroke-linejoin="round"/>
<path d="M21 26.4166H21.0089" stroke="#409F14" stroke-width="1.95" stroke-linecap="round" stroke-linejoin="round"/>
</svg>
