<svg width="42" height="42" viewBox="0 0 42 42" fill="none" xmlns="http://www.w3.org/2000/svg">
<rect width="42" height="42" rx="12" fill="#E4FADA"/>
<path d="M11.25 25.3333L16.0921 20.4911C16.46 20.1233 16.9589 19.9166 17.4792 19.9166C17.9994 19.9166 18.4983 20.1233 18.8662 20.4911L23.1667 24.7916M23.1667 24.7916L24.7917 26.4166M23.1667 24.7916L25.3005 22.6578C25.6683 22.29 26.1673 22.0833 26.6875 22.0833C27.2077 22.0833 27.7067 22.29 28.0745 22.6578L30.75 25.3333" stroke="#409F14" stroke-width="1.625" stroke-linecap="round" stroke-linejoin="round"/>
<path d="M31.2916 21C31.2916 25.5822 31.2916 27.8734 29.9938 29.3928C29.8095 29.6086 29.6085 29.8096 29.3927 29.9939C27.8732 31.2917 25.5821 31.2917 20.9999 31.2917C16.4177 31.2917 14.1266 31.2917 12.6071 29.9939C12.3913 29.8096 12.1903 29.6086 12.0061 29.3928C10.7083 27.8734 10.7083 25.5822 10.7083 21C10.7083 16.4178 10.7083 14.1267 12.0061 12.6072C12.1903 12.3914 12.3913 12.1905 12.6071 12.0062C14.1266 10.7084 16.4177 10.7084 20.9999 10.7084H22.6249" stroke="#409F14" stroke-width="1.625" stroke-linecap="round" stroke-linejoin="round"/>
<path d="M31.2917 15.0417C30.6528 15.6991 28.9521 18.2917 28.0417 18.2917C27.1314 18.2917 25.4307 15.6991 24.7917 15.0417M28.0417 17.75V10.7084" stroke="#409F14" stroke-width="1.625" stroke-linecap="round" stroke-linejoin="round"/>
</svg>
