<svg width="42" height="42" viewBox="0 0 42 42" fill="none" xmlns="http://www.w3.org/2000/svg">
<rect width="42" height="42" rx="12" fill="#E4FADA"/>
<path d="M21.5417 10.1799C21.3623 10.1711 21.1817 10.1666 21 10.1666C15.0169 10.1666 10.1667 15.0169 10.1667 21C10.1667 26.983 15.0169 31.8333 21 31.8333C26.9831 31.8333 31.8334 26.983 31.8334 21C31.8334 20.0648 31.7148 19.1572 31.4921 18.2916" stroke="#409F14" stroke-width="1.625" stroke-linecap="round" stroke-linejoin="round"/>
<path d="M16.6667 24.25C17.6548 25.5656 19.228 26.4167 21 26.4167C22.772 26.4167 24.3452 25.5656 25.3334 24.25" stroke="#409F14" stroke-width="1.625" stroke-linecap="round" stroke-linejoin="round"/>
<path d="M18.8333 18.2916H17.4327C16.9422 18.2916 16.4718 18.4865 16.125 18.8333M23.1667 18.2916H24.5673C25.0577 18.2916 25.5282 18.4865 25.875 18.8333" stroke="#409F14" stroke-width="1.625" stroke-linecap="round" stroke-linejoin="round"/>
<path d="M25.2121 10.5254C26.2289 9.93138 27.1164 10.1708 27.6495 10.552C27.8681 10.7084 27.9773 10.7866 28.0417 10.7866C28.106 10.7866 28.2152 10.7084 28.4338 10.552C28.967 10.1708 29.8544 9.93138 30.8712 10.5254C32.2057 11.3049 32.5076 13.8767 29.4296 16.0465C28.8433 16.4597 28.5502 16.6664 28.0417 16.6664C27.5332 16.6664 27.24 16.4597 26.6537 16.0465C23.5757 13.8767 23.8777 11.3049 25.2121 10.5254Z" stroke="#409F14" stroke-width="1.625" stroke-linecap="round"/>
</svg>
