<svg width="42" height="42" viewBox="0 0 42 42" fill="none" xmlns="http://www.w3.org/2000/svg">
<rect width="42" height="42" rx="12" fill="#E4FADA"/>
<path d="M11.25 21C16.125 21 21 16.125 21 11.25C21 16.125 25.875 21 30.75 21C25.875 21 21 25.875 21 30.75C21 25.875 16.125 21 11.25 21Z" stroke="#409F14" stroke-width="1.625" stroke-linejoin="round"/>
<path d="M10.1667 29.125C11.0694 29.125 12.875 27.3194 12.875 26.4166C12.875 27.3194 14.6806 29.125 15.5833 29.125C14.6806 29.125 12.875 30.9306 12.875 31.8333C12.875 30.9306 11.0694 29.125 10.1667 29.125Z" stroke="#409F14" stroke-width="1.625" stroke-linejoin="round"/>
<path d="M25.3333 13.4166C26.4167 13.4166 28.5833 11.25 28.5833 10.1666C28.5833 11.25 30.75 13.4166 31.8333 13.4166C30.75 13.4166 28.5833 15.5833 28.5833 16.6666C28.5833 15.5833 26.4167 13.4166 25.3333 13.4166Z" stroke="#409F14" stroke-width="1.625" stroke-linejoin="round"/>
</svg>
