<svg width="42" height="42" viewBox="0 0 42 42" fill="none" xmlns="http://www.w3.org/2000/svg">
<rect width="42" height="42" rx="12" fill="#E4FADA"/>
<path d="M21.0001 26.4166C19.187 26.4166 17.6089 27.787 16.7942 29.8088C16.4051 30.7743 16.9635 31.8333 17.7054 31.8333H24.2947C25.0367 31.8333 25.595 30.7743 25.2059 29.8088C24.3912 27.787 22.8131 26.4166 21.0001 26.4166Z" stroke="#409F14" stroke-width="1.625" stroke-linecap="round"/>
<path d="M28.0416 13.4166H29.344C30.6449 13.4166 31.2954 13.4166 31.6348 13.8254C31.9741 14.2342 31.833 14.8479 31.5508 16.0751L31.1275 17.9158C30.4909 20.6843 28.1617 22.7428 25.3333 23.1666" stroke="#409F14" stroke-width="1.625" stroke-linecap="round" stroke-linejoin="round"/>
<path d="M13.9584 13.4166H12.656C11.3551 13.4166 10.7046 13.4166 10.3653 13.8254C10.0259 14.2342 10.167 14.8479 10.4492 16.0751L10.8725 17.9158C11.5092 20.6843 13.8383 22.7428 16.6667 23.1666" stroke="#409F14" stroke-width="1.625" stroke-linecap="round" stroke-linejoin="round"/>
<path d="M20.9999 26.4166C24.2725 26.4166 27.0287 21.366 27.8571 14.4901C28.0862 12.5885 28.2008 11.6377 27.594 10.9022C26.9872 10.1666 26.0074 10.1666 24.0478 10.1666H17.952C15.9925 10.1666 15.0127 10.1666 14.4059 10.9022C13.799 11.6377 13.9136 12.5885 14.1427 14.4901C14.9712 21.366 17.7274 26.4166 20.9999 26.4166Z" stroke="#409F14" stroke-width="1.625" stroke-linecap="round"/>
</svg>
